<svg width="153" height="56" viewBox="0 0 153 56" fill="none" xmlns="http://www.w3.org/2000/svg">
<g id="Logo">
<path id="Vector" d="M32.4437 3.57142C31.9903 3.70746 31.295 3.97954 30.8869 4.20627C29.8893 4.75042 28.3476 6.18638 27.743 7.12353C27.471 7.53165 27.214 7.8793 27.1687 7.8793C27.1233 7.8793 26.7152 7.69791 26.2467 7.47118C25.4909 7.0933 25.234 7.04795 23.8736 7.04795C22.3924 7.04795 22.3168 7.06307 21.0623 7.6828C16.7697 9.81407 14.9559 14.394 14.2153 25.0352C13.7467 31.9278 13.6561 32.7743 13.384 33.8777C12.7643 36.2962 10.3308 43.083 7.51946 50.2325L7.40588 50.5214C6.95226 51.6749 7.80263 52.9231 9.04215 52.9231H23.3597H39.0425C39.774 52.9231 40.429 52.4702 40.6874 51.7859L40.8173 51.4418C43.9612 43.2492 44.0519 43.0376 50.5361 32.3964C52.3499 29.4187 52.5917 28.799 52.8487 26.6979C53.1812 24.0527 52.3801 21.4982 50.7931 19.9867C50.3547 19.5635 49.735 19.11 49.4327 18.9589C49.1102 18.8065 48.9266 18.4598 48.9819 18.1074L49.0095 17.931C49.07 17.5229 49.1153 16.3892 49.1153 15.437C49.0851 12.9581 48.4654 11.3558 47.0446 10.0408C45.3517 8.48391 43.2357 8.12115 40.9685 9.02807C40.4848 9.22457 40.0465 9.36061 40.0162 9.33038C39.986 9.30014 39.8651 8.84668 39.7442 8.31765C39.2907 6.35265 37.9606 4.59927 36.3736 3.85861C35.3307 3.35981 33.6378 3.23888 32.4437 3.57142ZM34.5296 7.65257C35.1644 8.19672 35.3609 8.89203 35.2551 10.4338C35.0435 14.0161 32.9123 16.1172 30.7811 14.8173C30.5242 14.6661 30.1765 14.3184 29.9951 14.0464C29.0882 12.5802 30.4637 8.95249 32.3833 7.72815C33.2599 7.16888 33.9099 7.13865 34.5296 7.65257ZM23.8888 11.3861C24.4782 11.8546 24.7201 12.5499 24.7201 13.8348C24.7201 16.4346 23.4202 18.6868 21.7425 19.0042C21.0774 19.1251 19.9136 18.5507 19.4601 17.8554C18.4777 16.4044 19.838 12.7464 21.8029 11.507C22.6494 10.9628 23.3144 10.9326 23.8888 11.3861ZM44.5204 12.8371C45.8505 14.1673 45.2913 17.9612 43.5229 19.6844C42.5404 20.6367 40.6208 20.3797 39.9255 19.2007C39.593 18.6414 39.5779 17.1299 39.8953 16.2532C40.4243 14.7417 41.4521 13.3208 42.4799 12.7011C43.1752 12.2628 44.0065 12.3232 44.5204 12.8371ZM35.2551 21.5738C36.2375 22.0424 37.3107 23.2214 37.6281 24.1737C37.8095 24.7027 37.8548 25.398 37.8246 26.8491L37.8033 28.2346C37.7975 28.611 37.9126 28.9792 38.1317 29.2853L38.671 30.0384C39.6384 31.4139 39.986 32.2453 39.986 33.1824C39.986 35.2835 38.0815 37.3089 35.8143 37.5961C35.2853 37.6566 34.7714 37.6112 34.1517 37.4298C33.3204 37.2031 33.1239 37.0368 31.4462 35.3137C29.7835 33.6208 29.5719 33.4545 28.8615 33.2882C28.1814 33.122 27.8639 33.1371 26.4885 33.4243C25.1282 33.7115 24.7654 33.7266 24.0701 33.5754C20.5937 32.865 19.3392 28.5873 21.8332 25.9724C22.7703 24.9748 23.3295 24.7783 25.5665 24.6574C28.0151 24.5364 28.5592 24.3097 29.7835 22.904C30.63 21.9517 31.431 21.4075 32.353 21.1657C33.0634 20.9843 34.3935 21.1808 35.2551 21.5738ZM48.3142 23.9923C49.1153 24.7178 49.3269 26.8944 48.7375 28.6327C47.9061 31.1721 46.2435 32.215 44.596 31.2477C43.2961 30.4768 43.1148 28.799 44.1274 26.6677C45.2611 24.2946 47.2411 23.0249 48.3142 23.9923Z" fill="#888888"/>
<path id="Union" fill-rule="evenodd" clip-rule="evenodd" d="M80.8824 5.60001H73.6909L70.0568 14.9807L67.3313 6.13636L60.4627 6.40454L60.2 24.8704L66.3735 24.6844L66.3954 16.0261L68.508 23.4803H70.8614L73.6143 15.1449L73.5595 25.4834L79.651 25.2152L80.8824 5.60001ZM94.5102 5.81345H82.1905L81.7636 25.0839L93.2788 24.8157C93.3262 23.8452 93.3773 22.8764 93.432 21.9095C93.4904 20.9426 93.5469 19.9703 93.6017 18.9924H91.2483H87.9371L88.0685 17.0386L92.0802 16.9072L92.3702 12.7642H88.3914L88.5227 11.0785L94.1873 10.7884C94.2602 9.94921 94.3186 9.12097 94.3624 8.30367C94.4062 7.48272 94.4555 6.65265 94.5102 5.81345ZM110.716 17.9963C110.902 17.2447 110.995 16.4621 110.995 15.6484C110.995 14.3495 110.789 13.1728 110.376 12.1183C109.96 11.0602 109.377 10.159 108.625 9.41469C107.873 8.67401 106.965 8.10299 105.899 7.70164C104.834 7.30028 103.656 7.09961 102.364 7.09961C101.561 7.09961 100.8 7.21089 100.082 7.43346C99.3593 7.65603 98.6879 7.96799 98.0676 8.36934C97.451 8.7707 96.8928 9.24685 96.3929 9.7978C95.893 10.3487 95.468 10.9544 95.1177 11.6148C94.7638 12.2752 94.4938 12.9776 94.3077 13.7219C94.1216 14.4626 94.0286 15.2215 94.0286 15.9987C94.0286 16.7905 94.1289 17.5512 94.3296 18.2809C94.5303 19.0143 94.8112 19.6985 95.1724 20.3333C95.53 20.9718 95.966 21.5501 96.4805 22.0683C96.9913 22.59 97.5623 23.037 98.1935 23.4091C98.8284 23.7777 99.5089 24.0641 100.235 24.2684C100.961 24.4727 101.725 24.5749 102.528 24.5749C103.356 24.5749 104.139 24.4654 104.876 24.2465C105.617 24.0312 106.301 23.7266 106.928 23.3325C107.556 22.9421 108.122 22.4733 108.625 21.926C109.129 21.375 109.555 20.7712 109.906 20.1144C110.26 19.454 110.53 18.748 110.716 17.9963ZM104.898 14.8822C105.007 15.2434 105.062 15.6156 105.062 15.9987C105.062 16.3891 105 16.7667 104.876 17.1316C104.752 17.4965 104.575 17.8194 104.345 18.1003C104.112 18.3813 103.829 18.6038 103.497 18.768C103.161 18.9359 102.784 19.0198 102.364 19.0198C101.944 19.0198 101.578 18.9249 101.264 18.7352C100.946 18.5491 100.682 18.3047 100.47 18.0018C100.255 17.699 100.094 17.3615 99.9887 16.9893C99.8792 16.6135 99.8245 16.2377 99.8245 15.8619C99.8245 15.4715 99.8883 15.1011 100.016 14.7509C100.14 14.3969 100.319 14.0886 100.552 13.8259C100.79 13.5632 101.072 13.3571 101.401 13.2075C101.733 13.0542 102.109 12.9776 102.528 12.9776C102.937 12.9776 103.298 13.0652 103.612 13.2403C103.929 13.4118 104.196 13.638 104.411 13.919C104.622 14.1999 104.785 14.521 104.898 14.8822ZM148.121 17.9963C148.307 17.2447 148.4 16.4621 148.4 15.6484C148.4 14.3495 148.192 13.1728 147.776 12.1183C147.364 11.0602 146.782 10.159 146.03 9.41469C145.275 8.67401 144.366 8.10299 143.305 7.70164C142.239 7.30028 141.061 7.09961 139.769 7.09961C138.966 7.09961 138.204 7.21089 137.481 7.43346C136.763 7.65603 136.093 7.96799 135.473 8.36934C134.852 8.7707 134.294 9.24685 133.798 9.7978C133.298 10.3487 132.871 10.9544 132.517 11.6148C132.167 12.2752 131.899 12.9776 131.713 13.7219C131.523 14.4626 131.428 15.2215 131.428 15.9987C131.428 16.7905 131.529 17.5512 131.729 18.2809C131.93 19.0143 132.211 19.6985 132.572 20.3333C132.933 20.9718 133.369 21.5501 133.88 22.0683C134.395 22.59 134.967 23.037 135.599 23.4091C136.23 23.7777 136.908 24.0641 137.635 24.2684C138.361 24.4727 139.125 24.5749 139.928 24.5749C140.756 24.5749 141.54 24.4654 142.281 24.2465C143.018 24.0312 143.702 23.7266 144.334 23.3325C144.961 22.9421 145.527 22.4733 146.03 21.926C146.534 21.375 146.961 20.7712 147.311 20.1144C147.661 19.454 147.931 18.748 148.121 17.9963ZM142.303 14.8822C142.412 15.2434 142.467 15.6156 142.467 15.9987C142.467 16.3891 142.405 16.7667 142.281 17.1316C142.157 17.4965 141.978 17.8194 141.745 18.1003C141.515 18.3813 141.232 18.6038 140.896 18.768C140.564 18.9359 140.189 19.0198 139.769 19.0198C139.349 19.0198 138.981 18.9249 138.663 18.7352C138.35 18.5491 138.085 18.3047 137.87 18.0018C137.658 17.699 137.498 17.3615 137.388 16.9893C137.282 16.6135 137.23 16.2377 137.23 15.8619C137.23 15.4715 137.292 15.1011 137.416 14.7509C137.54 14.3969 137.72 14.0886 137.957 13.8259C138.195 13.5632 138.477 13.3571 138.806 13.2075C139.134 13.0542 139.508 12.9776 139.928 12.9776C140.336 12.9776 140.699 13.0652 141.017 13.2403C141.334 13.4118 141.599 13.638 141.81 13.919C142.026 14.1999 142.19 14.521 142.303 14.8822ZM124.818 12.3267L130.371 12.8185L128.061 26.0677L122.027 26.1981L121.299 22.1613L120.608 25.6988L114.58 25.9114L112.242 13.1862L117.804 12.6956L118.38 17.2404L119.108 13.2829H123.499L124.343 17.2871L124.818 12.3267Z" fill="#FCA260"/>
<g id="Vector_2">
<path d="M90.5855 33.4208H93.5871V44.912H90.5855V33.4208ZM92.2431 40.4544H103.04V43.0976H92.2431V40.4544ZM90.5855 43.7696H100.576V46.3904H90.5855V43.7696ZM99.5231 43.7696H102.48C102.48 43.7696 102.458 44.4864 102.435 44.8224C102.278 49.056 102.054 50.8704 101.517 51.5648C101.069 52.1248 100.576 52.3488 99.9487 52.4384C99.4111 52.5504 98.5599 52.5504 97.6191 52.5504C97.5743 51.744 97.2831 50.624 96.8799 49.9296C97.5071 49.9968 98.0447 50.0192 98.3583 50.0192C98.6271 50.0192 98.7839 49.952 98.9631 49.7504C99.2543 49.392 99.4111 47.9808 99.5231 44.1952V43.7696ZM88.9951 46.5248L91.5039 47.2864C91.0783 49.168 90.4063 50.96 88.9727 52.1024L86.6655 50.6016C87.8751 49.6608 88.6591 48.1376 88.9951 46.5248ZM91.3919 47.6448L93.7215 47.1744C94.0127 48.4064 94.1695 49.9968 94.1247 51.0496L91.6607 51.5424C91.7503 50.512 91.6383 48.8768 91.3919 47.6448ZM94.0127 47.4656L96.0735 46.9056C96.4767 47.8688 96.8127 49.168 96.9023 49.9968L94.7071 50.6464C94.6623 49.7952 94.3711 48.4512 94.0127 47.4656ZM96.4319 47.2416L98.3807 46.5472C98.8287 47.2416 99.2543 48.1824 99.4111 48.832L97.3503 49.616C97.2383 48.9664 96.8351 47.9808 96.4319 47.2416ZM92.2879 33.4208H100.934V39.8272H92.2879V37.2736H97.8879V35.9744H92.2879V33.4208ZM93.9231 31.2032L97.7535 31.696C97.1487 32.9504 96.4543 34.1152 95.9615 34.8992L93.1839 34.2944C93.4975 33.3536 93.8111 32.1216 93.9231 31.2032ZM84.2239 33.4208H89.3759V46.7488H84.2239V43.7472H86.4639V36.4224H84.2239V33.4208ZM82.5215 33.4208H85.3887V48.5408H82.5215V33.4208Z" fill="#FCA260"/>
<path d="M69.2831 44.4864H78.2655V47.2192H69.2831V44.4864ZM69.2383 48.8096H78.2207V51.6544H69.2383V48.8096ZM69.0143 31.472H72.1055V39.2224H69.0143V31.472ZM75.1967 31.472H78.3103V39.2224H75.1967V31.472ZM72.2175 41.5296H75.1967V50.1984H72.2175V41.5296ZM67.7375 40.096H79.9007V52.3936H76.7423V42.9408H70.7391V52.528H67.7375V40.096ZM61.5999 33.1296H66.9087V46.816H61.5999V43.6576H63.9743V36.2656H61.5999V33.1296ZM59.9199 33.1296H62.8767V48.6528H59.9199V33.1296ZM67.2895 33.7792H73.3599V36.7808H67.2895V33.7792ZM73.9871 33.824H80.6623V36.8032H73.9871V33.824Z" fill="#FCA260"/>
</g>
</g>
</svg>
